<?xml version="1.0" encoding="UTF-8" standalone="no"?>
<!-- Created with Inkscape (http://www.inkscape.org/) -->

<svg
   xmlns:dc="http://purl.org/dc/elements/1.1/"
   xmlns:cc="http://creativecommons.org/ns#"
   xmlns:rdf="http://www.w3.org/1999/02/22-rdf-syntax-ns#"
   xmlns:svg="http://www.w3.org/2000/svg"
   xmlns="http://www.w3.org/2000/svg"
   xmlns:sodipodi="http://sodipodi.sourceforge.net/DTD/sodipodi-0.dtd"
   xmlns:inkscape="http://www.inkscape.org/namespaces/inkscape"
   version="1.1"
   width="32"
   height="32"
   viewBox="0 0 32 32"
   id="svg2"
   inkscape:version="0.91 r13725"
   sodipodi:docname="Sony.svg">
  <sodipodi:namedview
     pagecolor="#ffffff"
     bordercolor="#666666"
     borderopacity="1"
     objecttolerance="10"
     gridtolerance="10"
     guidetolerance="10"
     inkscape:pageopacity="0"
     inkscape:pageshadow="2"
     inkscape:window-width="1440"
     inkscape:window-height="851"
     id="namedview4200"
     showgrid="false"
     inkscape:zoom="2.36704"
     inkscape:cx="16.145455"
     inkscape:cy="16.308112"
     inkscape:window-x="0"
     inkscape:window-y="0"
     inkscape:window-maximized="1"
     inkscape:current-layer="svg2" />
  <metadata
     id="metadata10">
    <rdf:RDF>
      <cc:Work
         rdf:about="">
        <dc:format>image/svg+xml</dc:format>
        <dc:type
           rdf:resource="http://purl.org/dc/dcmitype/StillImage" />
        <dc:title></dc:title>
      </cc:Work>
    </rdf:RDF>
  </metadata>
  <defs
     id="defs8" />
  <circle
     style="opacity:1;fill:#ff9500;fill-opacity:1;stroke:none"
     id="path4206"
     cx="14.310125"
     cy="15.155063"
     r="13.820474" />
  <rect
     style="opacity:1;fill:#ffffff;fill-opacity:1;stroke:none;stroke-width:0.60000002;stroke-miterlimit:4;stroke-dasharray:none;stroke-opacity:1"
     id="rect4328"
     width="15.903173"
     height="12.943416"
     x="16.120132"
     y="18.274683"
     ry="2.1537969" />
  <path
     id="path4-4"
     inkscape:connector-curvature="0"
     d="m 7.2643059,18.786699 c 0.2877453,0.830388 1.0202476,1.300765 1.8526068,1.300765 l 10.4297853,0 c 0.83433,0 1.522816,-0.473005 1.809248,-1.300765 l -14.0916401,0 z m 5.8534521,-2.437296 c 0.680603,0.660238 1.78297,0.660238 2.463573,0 l 5.260221,-5.109122 c 0.199056,-0.193144 0.326505,-0.421763 0.400741,-0.663522 -0.681261,-0.13796 -1.389455,-0.256211 -2.123272,-0.352784 l -0.542643,0.527534 c -0.0079,0.0085 -0.0092,0.01971 -0.01839,0.02891 L 14.57488,14.64987 c -0.124822,0.12153 -0.326504,0.12153 -0.451326,0 l -3.984423,-3.868795 c -0.01051,-0.01051 -0.01183,-0.023 -0.01971,-0.03285 L 9.5787507,10.222662 c -0.733816,0.09723 -1.4420112,0.215481 -2.1219576,0.353441 0.07555,0.241101 0.2036555,0.469721 0.4007411,0.663522 l 5.2608808,5.109123 z"
     style="fill:#ffffff" />
  <path
     d="m 24.063614,21.266107 c -1.918479,0 -3.47488,1.556401 -3.47488,3.47488 0,1.91848 1.556401,3.47488 3.47488,3.47488 1.91848,0 3.47488,-1.5564 3.47488,-3.47488 0,-1.918479 -1.5564,-3.47488 -3.47488,-3.47488 z m 5.506848,-2.475108 -10.995861,0 c -0.996529,0 -1.804992,0.808462 -1.804992,1.80499 l 0,8.300803 c 0,0.996529 0.808463,1.804992 1.804992,1.804992 l 10.994238,0 c 0.99707,0 1.804993,-0.808463 1.804993,-1.804992 l 0,-8.300803 c 0,-0.996528 -0.807923,-1.80499 -1.804993,-1.80499 z m -5.493339,10.285753 c -2.391883,0 -4.330358,-1.938476 -4.330358,-4.329821 0,-2.391344 1.938475,-4.328737 4.329818,-4.328737 2.390804,0 4.328739,1.940095 4.328739,4.328737 0,2.388642 -1.937935,4.334142 -4.328739,4.334142 z"
     inkscape:connector-curvature="0"
     id="path4"
     style="stroke:#ffffff;stroke-width:0.82291114;stroke-opacity:0" />
</svg>
